<mxfile host="Electron" agent="Mozilla/5.0 (Macintosh; Intel Mac OS X 10_15_7) AppleWebKit/537.36 (KHTML, like Gecko) draw.io/26.0.9 Chrome/128.0.6613.186 Electron/32.2.5 Safari/537.36" version="26.0.9">
  <diagram id="09vQUJt1MqUtOtWp7QRa" name="ページ1">
    <mxGraphModel dx="1527" dy="1305" grid="1" gridSize="10" guides="1" tooltips="1" connect="1" arrows="1" fold="1" page="1" pageScale="1" pageWidth="650" pageHeight="740" background="#ffffff" math="1" shadow="0">
      <root>
        <mxCell id="0" />
        <mxCell id="1" parent="0" />
        <mxCell id="sN85OeUpTr0bT9mZw__X-64" value="" style="rounded=0;whiteSpace=wrap;html=1;strokeColor=none;" vertex="1" parent="1">
          <mxGeometry x="10" y="10" width="630" height="720" as="geometry" />
        </mxCell>
        <mxCell id="sN85OeUpTr0bT9mZw__X-8" value="" style="endArrow=none;html=1;rounded=0;curved=1;strokeColor=#808080;strokeWidth=2;" edge="1" parent="1">
          <mxGeometry width="50" height="50" relative="1" as="geometry">
            <mxPoint x="40" y="250" as="sourcePoint" />
            <mxPoint x="460" y="250" as="targetPoint" />
            <Array as="points">
              <mxPoint x="200" y="-30" />
              <mxPoint x="320" y="460" />
            </Array>
          </mxGeometry>
        </mxCell>
        <mxCell id="sN85OeUpTr0bT9mZw__X-2" value="" style="endArrow=classic;html=1;rounded=0;" edge="1" parent="1">
          <mxGeometry width="50" height="50" relative="1" as="geometry">
            <mxPoint x="20" y="320" as="sourcePoint" />
            <mxPoint x="550" y="320" as="targetPoint" />
          </mxGeometry>
        </mxCell>
        <mxCell id="sN85OeUpTr0bT9mZw__X-3" value="" style="endArrow=classic;html=1;rounded=0;" edge="1" parent="1">
          <mxGeometry width="50" height="50" relative="1" as="geometry">
            <mxPoint x="40" y="340" as="sourcePoint" />
            <mxPoint x="40" y="90" as="targetPoint" />
          </mxGeometry>
        </mxCell>
        <mxCell id="sN85OeUpTr0bT9mZw__X-4" value="`\rho`" style="text;html=1;align=center;verticalAlign=middle;whiteSpace=wrap;rounded=0;fontSize=24;" vertex="1" parent="1">
          <mxGeometry x="10" y="50" width="60" height="30" as="geometry" />
        </mxCell>
        <mxCell id="sN85OeUpTr0bT9mZw__X-5" value="`x`" style="text;html=1;align=center;verticalAlign=middle;whiteSpace=wrap;rounded=0;fontSize=24;" vertex="1" parent="1">
          <mxGeometry x="548" y="303" width="60" height="30" as="geometry" />
        </mxCell>
        <mxCell id="sN85OeUpTr0bT9mZw__X-7" value="" style="endArrow=none;html=1;rounded=0;curved=1;strokeColor=#0000FF;strokeWidth=2;" edge="1" parent="1">
          <mxGeometry width="50" height="50" relative="1" as="geometry">
            <mxPoint x="120" y="250" as="sourcePoint" />
            <mxPoint x="540" y="250" as="targetPoint" />
            <Array as="points">
              <mxPoint x="280" y="-30" />
              <mxPoint x="400" y="460" />
            </Array>
          </mxGeometry>
        </mxCell>
        <mxCell id="sN85OeUpTr0bT9mZw__X-9" value="" style="endArrow=classic;html=1;rounded=0;" edge="1" parent="1">
          <mxGeometry width="50" height="50" relative="1" as="geometry">
            <mxPoint x="190" y="90" as="sourcePoint" />
            <mxPoint x="270" y="90" as="targetPoint" />
          </mxGeometry>
        </mxCell>
        <mxCell id="sN85OeUpTr0bT9mZw__X-10" value="`vh`" style="text;html=1;align=center;verticalAlign=middle;whiteSpace=wrap;rounded=0;fontSize=24;" vertex="1" parent="1">
          <mxGeometry x="197" y="54" width="60" height="30" as="geometry" />
        </mxCell>
        <mxCell id="sN85OeUpTr0bT9mZw__X-13" value="" style="endArrow=none;html=1;rounded=0;strokeWidth=2;strokeColor=#808080;" edge="1" parent="1">
          <mxGeometry width="50" height="50" relative="1" as="geometry">
            <mxPoint x="526" y="68.5" as="sourcePoint" />
            <mxPoint x="586" y="68.5" as="targetPoint" />
          </mxGeometry>
        </mxCell>
        <mxCell id="sN85OeUpTr0bT9mZw__X-14" value="" style="endArrow=none;html=1;rounded=0;strokeWidth=2;strokeColor=#0000FF;" edge="1" parent="1">
          <mxGeometry width="50" height="50" relative="1" as="geometry">
            <mxPoint x="526" y="120" as="sourcePoint" />
            <mxPoint x="586" y="120" as="targetPoint" />
          </mxGeometry>
        </mxCell>
        <mxCell id="sN85OeUpTr0bT9mZw__X-15" value="`\rho(x, t)`" style="text;html=1;align=center;verticalAlign=middle;whiteSpace=wrap;rounded=0;fontSize=24;" vertex="1" parent="1">
          <mxGeometry x="450" y="54" width="60" height="30" as="geometry" />
        </mxCell>
        <mxCell id="sN85OeUpTr0bT9mZw__X-16" value="`\rho(x, t+h)`" style="text;html=1;align=center;verticalAlign=middle;whiteSpace=wrap;rounded=0;fontSize=24;" vertex="1" parent="1">
          <mxGeometry x="370" y="100" width="170" height="40" as="geometry" />
        </mxCell>
        <mxCell id="sN85OeUpTr0bT9mZw__X-39" value="" style="endArrow=none;html=1;rounded=0;curved=1;strokeColor=#808080;strokeWidth=2;" edge="1" parent="1">
          <mxGeometry width="50" height="50" relative="1" as="geometry">
            <mxPoint x="40" y="600" as="sourcePoint" />
            <mxPoint x="460" y="600" as="targetPoint" />
            <Array as="points">
              <mxPoint x="200" y="320" />
              <mxPoint x="320" y="810" />
            </Array>
          </mxGeometry>
        </mxCell>
        <mxCell id="sN85OeUpTr0bT9mZw__X-40" value="" style="endArrow=classic;html=1;rounded=0;" edge="1" parent="1">
          <mxGeometry width="50" height="50" relative="1" as="geometry">
            <mxPoint x="20" y="670" as="sourcePoint" />
            <mxPoint x="550" y="670" as="targetPoint" />
          </mxGeometry>
        </mxCell>
        <mxCell id="sN85OeUpTr0bT9mZw__X-41" value="" style="endArrow=classic;html=1;rounded=0;" edge="1" parent="1">
          <mxGeometry width="50" height="50" relative="1" as="geometry">
            <mxPoint x="40" y="690" as="sourcePoint" />
            <mxPoint x="40" y="440" as="targetPoint" />
          </mxGeometry>
        </mxCell>
        <mxCell id="sN85OeUpTr0bT9mZw__X-42" value="`\rho`" style="text;html=1;align=center;verticalAlign=middle;whiteSpace=wrap;rounded=0;fontSize=24;" vertex="1" parent="1">
          <mxGeometry x="10" y="400" width="60" height="30" as="geometry" />
        </mxCell>
        <mxCell id="sN85OeUpTr0bT9mZw__X-43" value="`x`" style="text;html=1;align=center;verticalAlign=middle;whiteSpace=wrap;rounded=0;fontSize=24;" vertex="1" parent="1">
          <mxGeometry x="548" y="653" width="60" height="30" as="geometry" />
        </mxCell>
        <mxCell id="sN85OeUpTr0bT9mZw__X-44" value="" style="endArrow=none;html=1;rounded=0;curved=1;strokeColor=#0000FF;strokeWidth=2;" edge="1" parent="1">
          <mxGeometry width="50" height="50" relative="1" as="geometry">
            <mxPoint x="120" y="600" as="sourcePoint" />
            <mxPoint x="540" y="600" as="targetPoint" />
            <Array as="points">
              <mxPoint x="280" y="320" />
              <mxPoint x="400" y="810" />
            </Array>
          </mxGeometry>
        </mxCell>
        <mxCell id="sN85OeUpTr0bT9mZw__X-47" value="" style="endArrow=none;html=1;rounded=0;strokeWidth=2;strokeColor=#808080;" edge="1" parent="1">
          <mxGeometry width="50" height="50" relative="1" as="geometry">
            <mxPoint x="526" y="418.5" as="sourcePoint" />
            <mxPoint x="586" y="418.5" as="targetPoint" />
          </mxGeometry>
        </mxCell>
        <mxCell id="sN85OeUpTr0bT9mZw__X-48" value="" style="endArrow=none;html=1;rounded=0;strokeWidth=2;strokeColor=#0000FF;" edge="1" parent="1">
          <mxGeometry width="50" height="50" relative="1" as="geometry">
            <mxPoint x="526" y="470" as="sourcePoint" />
            <mxPoint x="586" y="470" as="targetPoint" />
          </mxGeometry>
        </mxCell>
        <mxCell id="sN85OeUpTr0bT9mZw__X-49" value="`\rho(x, t)`" style="text;html=1;align=center;verticalAlign=middle;whiteSpace=wrap;rounded=0;fontSize=24;" vertex="1" parent="1">
          <mxGeometry x="450" y="404" width="60" height="30" as="geometry" />
        </mxCell>
        <mxCell id="sN85OeUpTr0bT9mZw__X-50" value="`\rho(x, t+h)`" style="text;html=1;align=center;verticalAlign=middle;whiteSpace=wrap;rounded=0;fontSize=24;" vertex="1" parent="1">
          <mxGeometry x="370" y="450" width="170" height="40" as="geometry" />
        </mxCell>
        <mxCell id="sN85OeUpTr0bT9mZw__X-54" value="" style="ellipse;whiteSpace=wrap;html=1;aspect=fixed;" vertex="1" parent="1">
          <mxGeometry x="176" y="443" width="13" height="13" as="geometry" />
        </mxCell>
        <mxCell id="sN85OeUpTr0bT9mZw__X-56" value="" style="ellipse;whiteSpace=wrap;html=1;aspect=fixed;fillColor=#0000FF;" vertex="1" parent="1">
          <mxGeometry x="257" y="443" width="13" height="13" as="geometry" />
        </mxCell>
        <mxCell id="sN85OeUpTr0bT9mZw__X-58" value="" style="endArrow=classic;html=1;rounded=0;strokeColor=#0000FF;" edge="1" parent="1">
          <mxGeometry width="50" height="50" relative="1" as="geometry">
            <mxPoint x="183" y="442" as="sourcePoint" />
            <mxPoint x="263" y="442" as="targetPoint" />
            <Array as="points">
              <mxPoint x="183" y="412" />
              <mxPoint x="263" y="412" />
            </Array>
          </mxGeometry>
        </mxCell>
        <mxCell id="sN85OeUpTr0bT9mZw__X-59" value="" style="ellipse;whiteSpace=wrap;html=1;aspect=fixed;fillColor=#FF0000;" vertex="1" parent="1">
          <mxGeometry x="176" y="501" width="13" height="13" as="geometry" />
        </mxCell>
        <mxCell id="sN85OeUpTr0bT9mZw__X-60" value="" style="endArrow=classic;html=1;rounded=0;strokeColor=#FF0000;" edge="1" parent="1">
          <mxGeometry width="50" height="50" relative="1" as="geometry">
            <mxPoint x="176" y="449" as="sourcePoint" />
            <mxPoint x="176" y="509" as="targetPoint" />
            <Array as="points">
              <mxPoint x="106" y="449" />
              <mxPoint x="106" y="509" />
            </Array>
          </mxGeometry>
        </mxCell>
        <mxCell id="sN85OeUpTr0bT9mZw__X-62" value="`\frac{D\rho}{Dt}`" style="text;html=1;align=center;verticalAlign=middle;whiteSpace=wrap;rounded=0;fontSize=24;" vertex="1" parent="1">
          <mxGeometry x="197" y="360" width="60" height="30" as="geometry" />
        </mxCell>
        <mxCell id="sN85OeUpTr0bT9mZw__X-63" value="`\frac{\partial\rho}{\partial t}`" style="text;html=1;align=center;verticalAlign=middle;whiteSpace=wrap;rounded=0;fontSize=24;" vertex="1" parent="1">
          <mxGeometry x="30" y="434" width="91" height="80" as="geometry" />
        </mxCell>
      </root>
    </mxGraphModel>
  </diagram>
</mxfile>
